<svg width="133" height="54" viewBox="0 0 133 54" fill="none" xmlns="http://www.w3.org/2000/svg">
<g clip-path="url(#clip0_86_288)">
<path d="M63.224 32.3696C61.8688 32.3696 60.8233 32.1774 59.9907 31.793C58.3645 31.0242 57.6481 29.525 57.5707 27.4685H59.5842C59.6423 29.5636 60.7265 30.6974 63.2434 30.6974C63.9984 30.6974 64.5986 30.5822 65.0826 30.3515C66.0507 29.8902 66.4766 29.1214 66.4766 28.2758C66.4766 27.68 66.3024 27.2187 65.9345 26.9112C65.1989 26.2962 63.9791 26.0463 62.6626 25.8157C61.5397 25.5851 60.436 25.3352 59.5454 24.8163C58.6549 24.2782 58.0935 23.4325 58.0935 21.991C58.0935 21.3183 58.287 20.7033 58.6162 20.1075C59.3519 18.9544 60.7459 18.1855 62.8755 18.1855C66.3024 18.1855 67.9674 19.7809 68.1029 22.4139H66.1474C66.0507 20.6841 65.0245 19.7809 62.8368 19.7809C60.9007 19.7809 59.9907 20.7802 59.9907 21.9719C59.9907 22.5292 60.1844 22.9521 60.5136 23.2403C61.2105 23.7977 62.4109 24.0091 63.7081 24.2973C64.8503 24.528 65.9926 24.797 66.8832 25.3352C67.7932 25.8734 68.374 26.7383 68.374 28.2373C68.374 28.9869 68.1803 29.6788 67.7932 30.2938C67.0187 31.5624 65.5086 32.3696 63.224 32.3696ZM77.6852 29.7173C77.1237 31.2933 75.8072 32.3312 73.8323 32.3312C71.0832 32.3312 69.7279 30.5629 69.7279 27.7569V21.107H71.6059V27.2956C71.6059 29.2752 72.3609 30.659 74.4132 30.659C76.4073 30.659 77.5689 29.083 77.5689 26.8151V21.107H79.447V32.0812H77.8787L77.6852 29.7173ZM87.4897 32.3312C85.4568 32.3312 84.1403 31.351 83.4627 29.8134V35.906H81.6427V21.107H83.1916L83.4046 23.5862C84.0628 21.9333 85.4181 20.7995 87.5478 20.7995C88.5546 20.7995 89.4065 21.0301 90.1421 21.4722C91.6136 22.3946 92.4655 24.1052 92.4655 26.546V26.796C92.4655 27.9875 92.2524 28.9677 91.8458 29.7941C90.994 31.4662 89.4839 32.3312 87.4897 32.3312ZM86.9476 30.7167C89.2515 30.7167 90.5681 29.2559 90.5681 26.7574V26.546C90.5681 23.913 89.1354 22.4139 87.0251 22.4139C86.2894 22.4139 85.6504 22.606 85.1083 22.9328C84.0241 23.6632 83.3852 24.9124 83.3852 26.5076V26.6422C83.3852 29.0638 84.7404 30.7167 86.9476 30.7167ZM99.2297 32.3696C95.7062 32.3696 93.6925 30.3131 93.6925 26.7767V26.5269C93.6925 25.2968 93.9443 24.2973 94.4089 23.4132C95.377 21.722 97.1001 20.7995 99.2297 20.7995C100.314 20.7995 101.263 21.0301 102.095 21.4913C103.78 22.3946 104.767 24.1052 104.767 26.5269V26.7767C104.767 27.9683 104.535 28.9484 104.089 29.7941C103.16 31.4662 101.495 32.3696 99.2297 32.3696ZM99.2297 30.6974C101.534 30.6974 102.85 29.2368 102.85 26.7383V26.5269C102.85 23.9707 101.379 22.4139 99.2297 22.4139C97.1001 22.4139 95.6093 23.8746 95.6093 26.5269V26.7383C95.6093 29.2368 96.9452 30.6974 99.2297 30.6974ZM106.355 32.0812V21.107H107.884L108.136 23.8361C108.601 22.0103 109.859 21.0301 112.144 21.0301H112.821V22.9135H111.892C110.963 22.9135 110.208 23.0481 109.685 23.3364C108.601 23.9323 108.213 25.0661 108.213 26.9497V32.0812H106.355ZM120.654 32.0812H119.435C118.447 32.0812 117.673 31.9467 117.131 31.6969C116.047 31.1779 115.659 30.0247 115.659 27.8337V22.7598H113.491V21.1647H114.556C114.885 21.1647 115.137 21.1454 115.311 21.0685C115.64 20.934 115.717 20.5688 115.775 19.7423C115.775 19.6463 115.775 19.4734 115.795 19.2619C115.795 18.8198 115.814 18.3585 115.814 18.2048H117.402V21.107H120.654V22.7598H117.402V27.5646C117.402 28.3719 117.46 28.9484 117.595 29.3329C117.886 30.1401 118.544 30.3322 119.861 30.3322H120.654V32.0812ZM131.931 28.8139C131.292 31.0819 129.434 32.3696 126.685 32.3696C123.006 32.3696 121.167 30.217 121.167 26.796V26.5653C121.167 25.4122 121.399 24.4127 121.844 23.5286C122.754 21.7988 124.458 20.7995 126.743 20.7995C127.962 20.7995 128.969 21.0493 129.744 21.5683C131.331 22.606 132.086 24.355 132.086 26.3347V27.2187H123.025C123.161 29.4866 124.477 30.7936 126.762 30.7936C128.369 30.7936 129.492 30.1017 129.898 28.8139H131.931ZM126.762 22.3178C124.632 22.3178 123.277 23.6055 123.045 25.7388H130.208C130.053 23.6439 128.892 22.3178 126.762 22.3178ZM29.5031 46.2736C28.8836 47.9265 27.4897 49.0989 25.3406 49.0989C24.3725 49.0989 23.5401 48.8874 22.785 48.4454C21.3135 47.542 20.4424 45.8507 20.4424 43.4292V43.1792C20.4424 41.9877 20.6553 40.9882 21.0619 40.1426C21.9138 38.4705 23.4625 37.5863 25.4568 37.5863C27.451 37.5863 28.8062 38.5474 29.4452 40.0657V34.146H31.265V48.849H29.7161L29.5031 46.2736ZM25.844 47.4652C26.5991 47.4652 27.2573 47.2729 27.7994 46.9463C28.9223 46.2543 29.5226 44.9859 29.5226 43.3906V43.2561C29.5226 42.4297 29.387 41.7377 29.0966 41.1227C28.5352 39.8928 27.451 39.1624 25.9796 39.1624C23.6369 39.1624 22.3785 40.7191 22.3785 43.2176V43.4099C22.3785 46.0429 23.8111 47.4652 25.844 47.4652ZM43.5728 45.5816C42.9339 47.8496 41.0753 49.1373 38.3261 49.1373C34.6476 49.1373 32.8083 46.9847 32.8083 43.5637V43.333C32.8083 42.1799 33.0405 41.1804 33.4858 40.2964C34.3958 38.5665 36.0995 37.5672 38.3842 37.5672C39.6038 37.5672 40.6106 37.817 41.3851 38.336C42.9727 39.3737 43.7278 41.1227 43.7278 43.1024V43.9865H34.6669C34.8024 46.2543 36.119 47.5613 38.4035 47.5613C40.0104 47.5613 41.1333 46.8694 41.5399 45.5816H43.5728ZM38.4035 39.0855C36.2739 39.0855 34.9186 40.3732 34.6863 42.5065H41.8498C41.6949 40.4116 40.5332 39.0855 38.4035 39.0855ZM50.8629 35.1839H55.5289C56.6518 35.1839 57.6586 35.4146 58.5878 35.8759C60.4465 36.8368 61.6469 38.6819 61.6469 41.5456V42.5065C61.6469 43.9288 61.3952 45.1012 60.8724 46.0237C59.8076 47.9265 57.9489 48.849 55.6451 48.849H50.8629V35.1839ZM52.7409 36.8177V47.1961H55.5676C56.4001 47.1961 57.0971 47.0231 57.736 46.6579C59.0138 45.9277 59.7495 44.5439 59.7495 42.372V41.6802C59.7495 40.6039 59.5752 39.7198 59.1881 38.9894C58.433 37.5479 57.1165 36.8177 55.4514 36.8177H52.7409ZM68.5232 49.1373C64.9996 49.1373 62.9862 47.0808 62.9862 43.5444V43.2946C62.9862 42.0645 63.2378 41.065 63.7025 40.181C64.6705 38.4897 66.3936 37.5672 68.5232 37.5672C69.6074 37.5672 70.5561 37.7978 71.3887 38.259C73.073 39.1624 74.0604 40.8729 74.0604 43.2946V43.5444C74.0604 44.736 73.8282 45.7162 73.3828 46.5618C72.4535 48.234 70.7885 49.1373 68.5232 49.1373ZM68.5232 47.4652C70.8272 47.4652 72.1437 46.0045 72.1437 43.506V43.2946C72.1437 40.7384 70.6724 39.1816 68.5232 39.1816C66.3936 39.1816 64.9028 40.6423 64.9028 43.2946V43.506C64.9028 46.0045 66.2387 47.4652 68.5232 47.4652ZM77.5264 48.849H75.6483V37.8747H77.2359L77.4101 40.0849C77.9717 38.5665 79.2301 37.5672 81.0887 37.5672C83.141 37.5672 84.2832 38.5281 84.7479 40.1234C85.2706 38.5281 86.5679 37.5672 88.5039 37.5672C91.1951 37.5672 92.589 39.2778 92.589 42.0838V48.849H90.7111V42.545C90.7111 40.5654 89.9172 39.2008 87.8843 39.2008C85.9676 39.2008 85.0771 40.5654 85.0771 42.449V48.849H83.2184V42.4104C83.2184 41.8147 83.1216 41.2957 82.9667 40.8152C82.5989 39.8351 81.8631 39.2008 80.4886 39.2008C78.5525 39.2008 77.5264 40.7 77.5264 42.9102V48.849ZM95.5444 36.4716C94.5763 36.4716 94.2084 36.1257 94.2084 35.1455C94.2084 34.1653 94.6539 33.8194 95.5444 33.8194C96.435 33.8194 96.8609 34.1653 96.8609 35.1455C96.8609 36.1066 96.435 36.4716 95.5444 36.4716ZM94.557 48.849V37.8747H96.4737V48.849H94.557ZM100.519 48.849H98.6218V37.8747H100.209L100.403 40.3732C101.003 38.6819 102.339 37.5672 104.449 37.5672C107.296 37.5672 108.767 39.393 108.767 42.1799V48.849H106.87V42.6027C106.87 40.5462 106.037 39.2008 103.888 39.2008C101.7 39.2008 100.519 40.7575 100.519 43.1024V48.849ZM114.868 53.8844C113.59 53.8844 112.603 53.7692 111.867 53.5578C110.396 53.1158 109.854 52.3085 109.854 51.1938C109.854 49.983 110.609 49.0989 112.351 48.6567C110.919 48.4454 110.26 47.7342 110.26 46.6964C110.26 45.6201 111.093 44.8514 112.719 44.563C111.112 44.1017 110.318 43.064 110.318 41.3918V41.3727C110.318 39.3353 111.751 38.0476 114.326 37.7978C114.539 37.7402 115.062 37.7209 115.313 37.7209C116.049 37.6633 116.552 37.5863 116.92 37.4518C117.656 37.1443 117.811 36.6061 117.811 35.6837V35.4723H119.941V35.7989C119.941 36.3179 119.844 36.7407 119.67 37.0675C119.302 37.7401 118.431 38.0476 116.804 38.1053H116.843C117.521 38.1822 118.082 38.3936 118.547 38.7011C119.476 39.3353 119.96 40.2771 119.96 41.3341V41.4111C119.96 43.7367 118.14 45.1589 115.062 45.1589H114.694C113.939 45.1589 113.358 45.1973 112.971 45.2934C112.158 45.4471 111.925 45.7739 111.925 46.2159C111.925 46.8309 112.448 47.1577 113.842 47.1384H116.436C119.418 47.1384 120.676 48.3108 120.676 50.2136C120.676 52.4046 118.992 53.8844 115.042 53.8844H114.868ZM115.062 43.7751C117.037 43.7751 118.082 42.9294 118.082 41.4302V41.3918C118.082 40.7768 117.927 40.2964 117.675 39.9312C117.153 39.2008 116.262 38.951 115.217 38.951C115.042 38.951 114.926 38.9701 114.791 38.9894C113.203 39.0855 112.177 39.9503 112.196 41.4111V41.4495C112.196 42.9486 113.222 43.7751 115.062 43.7751ZM115.062 52.3277C117.83 52.3277 118.934 51.5204 118.934 50.3096C118.934 49.3487 118.256 48.7144 116.359 48.7144H114.307C112.545 48.849 111.693 49.5601 111.693 50.6172V50.6364C111.693 51.5974 112.584 52.3277 114.713 52.3277H115.062ZM126.553 49.1373C123.029 49.1373 121.015 47.0808 121.015 43.5444V43.2946C121.015 42.0645 121.267 41.065 121.732 40.181C122.7 38.4897 124.423 37.5672 126.553 37.5672C127.637 37.5672 128.585 37.7978 129.418 38.259C131.102 39.1624 132.09 40.8729 132.09 43.2946V43.5444C132.09 44.736 131.857 45.7162 131.412 46.5618C130.483 48.234 128.818 49.1373 126.553 49.1373ZM126.553 47.4652C128.857 47.4652 130.173 46.0045 130.173 43.506V43.2946C130.173 40.7384 128.702 39.1816 126.553 39.1816C124.423 39.1816 122.932 40.6423 122.932 43.2946V43.506C122.932 46.0045 124.268 47.4652 126.553 47.4652Z" fill="#121212"/>
<path d="M16.5747 32.4004H0V48.8542H16.5747V32.4004Z" fill="#121212"/>
<path d="M53.5898 16.2852H16.7468V32.5699H53.5898V16.2852Z" fill="#121212"/>
<path d="M132.579 0H53.5901V16.2848H132.579V0Z" fill="#121212"/>
</g>
<defs>
<clipPath id="clip0_86_288">
<rect width="133" height="54" fill="white"/>
</clipPath>
</defs>
</svg>
